<?xml version="1.0" encoding="utf-8"?>
<!-- Generator: Adobe Illustrator 22.1.0, SVG Export Plug-In . SVG Version: 6.00 Build 0)  -->
<svg version="1.1" id="Layer_1" xmlns="http://www.w3.org/2000/svg" xmlns:xlink="http://www.w3.org/1999/xlink" x="0px" y="0px"
	 viewBox="0 0 300 300" style="enable-background:new 0 0 300 300;" xml:space="preserve">
<style type="text/css">
	.st0{fill:#F04937;}
</style>
<g>
	<g>
		<g>
			<path class="st0" d="M0,127.4h24.5c9.5,0,15.1,4.7,15.1,13.5c0,8.8-5.6,13.7-15.1,13.7H10v14.8H0V127.4z M10,136.2v9.7h13.6
				c3.8,0,5.7-1.8,5.7-4.9c0-3.3-1.9-4.9-5.7-4.9L10,136.2L10,136.2z"/>
		</g>
		<g>
			<path class="st0" d="M47.6,127.4h10.1v42H47.6V127.4z"/>
		</g>
		<g>
			<path class="st0" d="M65.9,148.4c0-13,9.7-21.7,22.3-21.7c12.5,0,22.2,8.8,22.2,21.7c0,12.8-9.7,21.7-22.2,21.7
				C75.6,170.1,65.9,161.2,65.9,148.4z M100.2,148.4c0-7-4.6-12.7-12-12.7c-7.3,0-12.1,5.6-12.1,12.7c0,7.2,4.7,12.7,12.1,12.7
				C95.6,161.1,100.2,155.5,100.2,148.4z"/>
		</g>
		<g>
			<path class="st0" d="M159.5,169.5h-8.2l-22.9-29v28.9h-9.8v-42H130l19.9,25.7v-25.7h9.6V169.5z"/>
		</g>
		<g>
			<path class="st0" d="M169.6,127.4h35.1v8.3h-25.1v7.6h15v8.5h-15v9H207v8.7h-37.4V127.4z"/>
		</g>
		<g>
			<path class="st0" d="M214.3,127.4h35.1v8.3h-25.1v7.6h15v8.5h-15v9h27.4v8.7h-37.4L214.3,127.4L214.3,127.4z"/>
		</g>
		<g>
			<path class="st0" d="M259,127.4h24.6c9.3,0,15,4.4,15,13.2c0,5.9-3,9.9-8,11.7l9.5,17.1h-10.6l-8.9-16H269v16h-10V127.4z
				 M269,136.1v8.9h13.5c3.8,0,5.7-1.5,5.7-4.4c0-3.3-2-4.6-5.7-4.6H269V136.1z"/>
		</g>
	</g>
	<g>
		<g>
			<path class="st0" d="M68.9,83.9c0.9-7.2,1.5-10.8,2.7-17.9c3.7-0.9,5.6-1.3,9.4-2.1c2.2,10.1,3.2,15.2,5.4,25.3
				c-2.4,0.5-3.6,0.8-5.9,1.3C78.7,82.8,77.8,79,76,71.4c-1.4,8.4-2,12.6-3,21c-1.6,0.4-2.5,0.7-4.1,1.1c-5-6.7-7.6-10-13-16.5
				c2.3,7.4,3.4,11.2,5.7,18.6c-2.2,0.7-3.3,1-5.6,1.7c-3.2-9.9-4.8-14.8-8-24.6c3.8-1.2,5.8-1.8,9.6-3
				C62.2,75.3,64.5,78.1,68.9,83.9z"/>
			<path class="st0" d="M110.2,80.5c-5,0.7-7.5,1-12.6,1.9c-0.5,1.9-0.7,2.9-1.2,4.8c-2.5,0.4-3.7,0.7-6.2,1.2
				c2.1-9.3,4.5-18.6,7.2-27.7c2.8-0.4,4.1-0.7,6.9-1c5.3,7.9,10.3,16,15,24.3c-2.6,0.3-4,0.4-6.6,0.7
				C111.7,83,111.2,82.2,110.2,80.5z M107.2,75.7c-2.1-3.4-3.2-5.1-5.5-8.5c-1.1,3.9-1.7,5.8-2.7,9.7
				C102.3,76.4,103.9,76.1,107.2,75.7z"/>
			<path class="st0" d="M120.8,57.8c4.7-0.4,7.1-0.6,11.8-0.8c9.1-0.5,15.6,4,15.7,12.5c0,8.3-5.9,12.9-14.3,13.4
				c-4.3,0.2-6.5,0.4-10.8,0.8C122.2,73.3,121.7,68.1,120.8,57.8z M128,62.6c0.4,6.1,0.6,9.1,1,15.2c1.8-0.1,2.7-0.2,4.5-0.3
				c4.9-0.3,8.2-3.1,8-7.9c-0.1-5-3.7-7.6-8.8-7.3C130.8,62.4,129.9,62.4,128,62.6z"/>
			<path class="st0" d="M153.7,56.5c9.5,0.1,14.3,0.3,23.8,1.1c-0.2,2-0.3,3.1-0.4,5.1c-6.7-0.6-10-0.8-16.7-1
				c-0.1,1.9-0.1,2.8-0.1,4.7c3.9,0.1,5.9,0.2,9.8,0.5c-0.1,2.1-0.2,3.1-0.3,5.2c-3.9-0.2-5.8-0.3-9.7-0.5c-0.1,2.2-0.1,3.3-0.2,5.5
				c7,0.2,10.4,0.4,17.4,1c-0.2,2.1-0.3,3.2-0.5,5.3c-9.3-0.8-14-1.1-23.4-1.2C153.5,72.1,153.6,66.9,153.7,56.5z"/>
			<path class="st0" d="M194,59.4c6.5,0.9,9.8,1.4,16.3,2.6c6.2,1.1,8.8,4.6,7.9,8.8c-0.6,2.6-2.8,4-4.9,4.3
				c2.2,1.3,3.9,3.7,3.1,7.1c-1,4.4-4.7,6.5-10.6,5.4c-6.1-1.1-9.1-1.6-15.3-2.4C191.9,74.8,192.6,69.7,194,59.4z M199.8,65.3
				c-0.3,2-0.5,3-0.8,5c3.3,0.5,5,0.8,8.3,1.4c2.3,0.4,3.7-0.1,4-1.8c0.3-1.8-0.8-2.8-3.1-3.2C204.9,66.1,203.2,65.9,199.8,65.3z
				 M198.3,75.3c-0.4,2.3-0.5,3.4-0.9,5.7c3.3,0.5,4.9,0.8,8.2,1.4c2.6,0.5,4.1-0.2,4.5-2.1s-0.8-3.1-3.4-3.6
				C203.3,76.1,201.6,75.8,198.3,75.3z"/>
			<path class="st0" d="M233.3,94c-2.6-0.7-3.8-1.1-6.4-1.7c1.1-4.2,1.7-6.3,2.8-10.6c-3.2-7-4.9-10.5-8.6-17.5
				c3.4,0.7,5.1,1.1,8.5,2c2.1,4.4,3.1,6.6,5.1,11c3.9-2.8,5.9-4.2,10-6.9c3,0.9,4.4,1.3,7.4,2.3c-6.5,4.2-9.7,6.4-15.8,10.9
				C235.1,87.7,234.5,89.8,233.3,94z"/>
		</g>
	</g>
	<g>
		<g>
			<path class="st0" d="M32.4,198.5c4.2,1.4,6.3,2,10.5,3.2c8.1,2.4,12.9,8.1,10.8,16.4c-2,8.1-9.4,11-18.1,8.5
				c-4.5-1.3-6.7-2-11.2-3.5C27.6,213.3,29.2,208.4,32.4,198.5z M36.9,205.5c-1.8,5.8-2.7,8.7-4.5,14.6c1.8,0.6,2.7,0.8,4.6,1.4
				c5,1.5,9-0.4,10.3-5c1.3-4.8-1.2-8.2-6-9.6C39.5,206.3,38.6,206.1,36.9,205.5z"/>
			<path class="st0" d="M61.9,206.8c8.6,2,12.9,2.9,21.6,4.5c-0.4,2-0.5,3-0.9,5c-6.3-1.1-9.4-1.7-15.7-3.1c-0.4,1.8-0.6,2.7-1,4.6
				c3.8,0.8,5.7,1.2,9.4,2c-0.4,2-0.6,3.1-1,5.1c-3.8-0.7-5.8-1.1-9.6-2c-0.5,2.2-0.7,3.2-1.2,5.4c7.1,1.6,10.7,2.3,17.8,3.5
				c-0.4,2.1-0.6,3.2-0.9,5.3c-9.9-1.7-14.8-2.7-24.6-5.1C58.3,221.9,59.5,216.9,61.9,206.8z"/>
			<path class="st0" d="M93.4,219.9c-0.2,1.4,0.9,2.4,3.2,3c1.4,0.4,2.5,0.6,4.2,0.9c6,1.3,9.9,3.8,9.3,9.4
				c-0.5,5.1-5.1,7.9-13.2,6.9c-9.6-1.3-12.3-6.3-12.6-10.1c2.7,0.5,4.1,0.7,6.9,1.1c0.4,1.5,2.1,3.5,6.4,4.1
				c3.7,0.5,5.5-0.5,5.7-2.2c0.2-1.9-1.2-2.7-3.6-3.3c-1.6-0.4-2.7-0.6-4.3-1c-5.9-1.4-9.4-4.6-8.6-9.4c0.8-4.9,5.7-6.8,12.2-5.9
				c8.5,1.2,11.1,5.4,11.6,8.8c-2.6-0.3-3.8-0.4-6.4-0.7c-0.5-1-2.1-2.6-5.9-3.1C95.4,217.8,93.7,218.4,93.4,219.9z"/>
			<path class="st0" d="M117.1,215.7c2.5,0.2,3.8,0.3,6.3,0.5c-0.7,10.3-1.1,15.5-1.8,25.8c-2.7-0.2-4-0.3-6.7-0.5
				C115.8,231.2,116.2,226.1,117.1,215.7z"/>
			<path class="st0" d="M142.8,243.5c-9.6-0.2-15.4-6-14.9-14.1c0.4-7.8,6.4-13,14.4-12.8c8.1,0.2,11.4,4.7,12.2,7.6
				c-2.7,0-4,0-6.7,0c-0.7-0.8-2.4-2.2-5.6-2.2c-4.5-0.1-7.5,3.2-7.7,7.7c-0.2,4.8,2.9,8.4,8.6,8.5c3,0.1,5-0.5,5.9-1.1
				c0-1.7,0-2.6,0-4.3c-3.5,0-5.2,0-8.6-0.1c0-2,0.1-3,0.1-5.1c5.9,0.1,8.8,0.2,14.7,0.1c0.1,4.9,0.1,7.3,0.2,12.1
				C153.7,241.2,149.4,243.6,142.8,243.5z"/>
			<path class="st0" d="M188.8,241.3c-2.2,0.2-3.3,0.3-5.4,0.5c-6.7-6.6-9.9-10-16.1-16.9c0.3,7.1,0.5,10.7,0.8,17.8
				c-2.6,0.1-3.9,0.2-6.6,0.2c-0.3-10.4-0.4-15.5-0.7-25.9c2.9-0.1,4.3-0.1,7.1-0.3c5.3,6.1,8,9.1,13.7,15
				c-0.5-6.3-0.8-9.5-1.3-15.8c2.4-0.2,3.6-0.3,6-0.5C187.3,225.8,187.8,230.9,188.8,241.3z"/>
			<path class="st0" d="M202.4,226.6c-1-7.7,3.8-14,11.6-15.3c8.4-1.4,12.8,3.5,14,6.3c-2.6,0.5-3.9,0.8-6.4,1.3
				c-0.8-0.9-3-2.7-6.6-2c-4.4,0.7-6.5,4.6-5.9,8.9c0.6,4.2,4,7.3,8.5,6.5c4.1-0.7,5.3-3.2,5.7-4.2c2.6-0.5,3.9-0.7,6.6-1.3
				c0,2.6-2,9.4-11.4,11C210.1,239.1,203.4,234.3,202.4,226.6z"/>
			<path class="st0" d="M232.5,221.4c-1.7-7.8,3.2-14.3,10.8-16.3c7.7-1.9,15,1.5,17.3,9.2c2.2,7.6-2.5,14.7-10.7,16.8
				C241.7,233.1,234.2,229.1,232.5,221.4z M254.2,216.1c-1.1-4.2-4.9-6.8-9.5-5.6c-4.5,1.2-6.7,5.2-5.7,9.5s4.8,6.9,9.6,5.7
				C253.3,224.5,255.4,220.3,254.2,216.1z"/>
			<path class="st0" d="M266.4,218.6c2.8-0.9,4.2-1.3,7-2.2c0.9,2.7,1.3,4.1,2.2,6.8c-2.8,0.9-4.3,1.4-7.1,2.2
				C267.7,222.7,267.2,221.3,266.4,218.6z"/>
		</g>
	</g>
</g>
</svg>
