<?xml version="1.0" encoding="utf-8" ?>
<svg xmlns="http://www.w3.org/2000/svg" xmlns:xlink="http://www.w3.org/1999/xlink" width="565" height="161">
	<defs>
		<clipPath id="clip_0">
			<rect x="-359" y="-119" width="5760" height="20332" clip-rule="evenodd"/>
		</clipPath>
	</defs>
	<g clip-path="url(#clip_0)">
		<path fill="rgb(255,255,255)" stroke="none" transform="matrix(4 0 0 4 30.7179 87.8582)" d="M0 5.71051L8.40545 10.5633L8.40545 5.71051L11.3756 5.71051L11.3756 10.5633L19.7807 5.71051L9.8902 0L0 5.71051Z"/>
	</g>
	<defs>
		<clipPath id="clip_1">
			<rect x="-359" y="-119" width="5760" height="20332" clip-rule="evenodd"/>
		</clipPath>
	</defs>
	<g clip-path="url(#clip_1)">
		<path fill="rgb(255,255,255)" stroke="none" transform="matrix(4 0 0 4 30.7141 31.8822)" d="M8.40642 0L0 4.85336L8.40642 9.70699L8.40642 0Z"/>
	</g>
	<defs>
		<clipPath id="clip_2">
			<rect x="-359" y="-119" width="5760" height="20332" clip-rule="evenodd"/>
		</clipPath>
	</defs>
	<g clip-path="url(#clip_2)">
		<path fill="rgb(255,255,255)" stroke="none" transform="matrix(4 0 0 4 24.7751 61.5845)" d="M0 0L0 9.70708L8.40615 4.85371L0 0Z"/>
	</g>
	<defs>
		<clipPath id="clip_3">
			<rect x="-359" y="-119" width="5760" height="20332" clip-rule="evenodd"/>
		</clipPath>
	</defs>
	<g clip-path="url(#clip_3)">
		<path fill="rgb(255,255,255)" stroke="none" transform="matrix(4 0 0 4 76.2205 31.8822)" d="M0 0L0 9.70673L8.40615 4.85336L0 0Z"/>
	</g>
	<defs>
		<clipPath id="clip_4">
			<rect x="-359" y="-119" width="5760" height="20332" clip-rule="evenodd"/>
		</clipPath>
	</defs>
	<g clip-path="url(#clip_4)">
		<path fill="rgb(255,255,255)" stroke="none" transform="matrix(4 0 0 4 82.1595 61.5852)" d="M8.40615 9.70699L8.40615 0L0 4.85363L8.40615 9.70699Z"/>
	</g>
	<defs>
		<clipPath id="clip_5">
			<rect x="-359" y="-119" width="5760" height="20332" clip-rule="evenodd"/>
		</clipPath>
	</defs>
	<g clip-path="url(#clip_5)">
		<path fill="rgb(255,255,255)" stroke="none" transform="matrix(4 0 0 4 0.999847 0.999893)" d="M0 9.99974L17.3199 0L34.6398 9.99974L34.6398 29.9989L17.3199 39.9985L0 29.9989L0 9.99974ZM2.97354 11.7163L2.97354 28.2822L17.3199 36.5648L31.6662 28.2822L31.6662 11.7163L17.3199 3.43358L2.97354 11.7163Z" fill-rule="evenodd"/>
	</g>
	<defs>
		<clipPath id="clip_6">
			<rect x="-359" y="-119" width="5760" height="20332" clip-rule="evenodd"/>
		</clipPath>
	</defs>
	<g clip-path="url(#clip_6)">
		<path fill="rgb(255,255,255)" stroke="none" transform="matrix(4 0 0 4 179.813 30.2035)" d="M15.1984 6.87385C15.5941 6.27147 15.8014 5.38629 15.8014 4.31288C15.8014 3.14479 15.5376 2.29776 15.0102 1.63851C14.2385 0.64044 12.7694 0 10.5279 0L0 0L0 14.7845L3.52149 14.7845L3.52149 9.02154L9.26602 9.02154L13.2023 14.7845L17.2327 14.7845L12.8069 8.47481C13.8618 8.3055 14.728 7.64624 15.1984 6.87385M12.0726 5.59385C11.8461 5.9702 11.3193 6.17714 10.3588 6.17714L3.54057 6.17714L3.54057 2.90004L10.1512 2.90004C11.2059 2.90004 11.7523 3.12668 12.0726 3.5971C12.2608 3.84185 12.3171 4.23763 12.3171 4.59516C12.3171 4.89679 12.2608 5.29187 12.0726 5.59385"/>
	</g>
	<defs>
		<clipPath id="clip_7">
			<rect x="-359" y="-119" width="5760" height="20332" clip-rule="evenodd"/>
		</clipPath>
	</defs>
	<g clip-path="url(#clip_7)">
		<path fill="rgb(255,255,255)" stroke="none" transform="matrix(4 0 0 4 250.684 30.2035)" d="M0 14.7842L7.81538 0L12.0717 0L19.5676 14.7842L15.707 14.7842L14.125 11.526L5.40484 11.526L3.76624 14.7842L0 14.7842ZM9.24695 4.10541L6.91174 8.66303L12.6556 8.66303C12.6746 8.66303 10.4335 4.10541 10.4335 4.10541L9.84932 2.76818L9.24695 4.10541Z" fill-rule="evenodd"/>
	</g>
	<defs>
		<clipPath id="clip_8">
			<rect x="-359" y="-119" width="5760" height="20332" clip-rule="evenodd"/>
		</clipPath>
	</defs>
	<g clip-path="url(#clip_8)">
		<path fill="rgb(255,255,255)" stroke="none" transform="matrix(4 0 0 4 336.469 30.2037)" d="M12.4302 9.92492L3.91745 0L0 0L0 14.7843L3.44677 14.7843L3.44677 4.63297L12.1288 14.7843L15.8388 14.7843L15.8388 0L12.4302 0L12.4302 9.92492Z"/>
	</g>
	<defs>
		<clipPath id="clip_9">
			<rect x="-359" y="-119" width="5760" height="20332" clip-rule="evenodd"/>
		</clipPath>
	</defs>
	<g clip-path="url(#clip_9)">
		<path fill="rgb(255,255,255)" stroke="none" transform="matrix(4 0 0 4 410.578 29.0721)" d="M13.8804 10.8108C12.9197 11.9032 11.5076 12.2984 9.2473 12.2984C7.32589 12.2984 5.38637 11.7713 4.42585 10.4907C3.9738 9.86936 3.70998 8.98409 3.70998 7.66532C3.70998 6.47877 3.95543 5.57477 4.40668 4.93433C5.21723 3.76686 6.83639 3.07015 9.20976 3.07015C11.6207 3.07015 13.127 3.71059 13.8428 4.61486C14.1814 5.02875 14.4079 5.59393 14.4452 6.10215L18.1558 6.10215C18.1366 5.53732 17.9485 4.50119 17.4962 3.6916C16.2909 1.65758 13.9366 0 9.2473 0C5.17908 0 2.76826 1.26189 1.35631 3.07015C0.452308 4.16255 0 5.72545 0 7.64686C0 9.75587 0.54611 11.3568 1.50664 12.4865C2.84387 14.1822 5.3673 15.2927 9.28536 15.2927C13.6547 15.2927 16.1781 14.0313 17.3643 11.9598C17.9485 11.0365 18.1175 9.96308 18.1742 9.30418L14.4643 9.30418C14.4079 9.86936 14.257 10.3778 13.8804 10.8108"/>
	</g>
	<defs>
		<clipPath id="clip_10">
			<rect x="-359" y="-119" width="5760" height="20332" clip-rule="evenodd"/>
		</clipPath>
	</defs>
	<g clip-path="url(#clip_10)">
		<path fill="rgb(255,255,255)" stroke="none" transform="matrix(4 0 0 4 489.508 28.999)" d="M16.856 2.56097C15.2174 0.847121 12.8259 0 9.26637 0C5.70673 0 3.38989 0.866198 1.67666 2.71191C0.508571 3.97345 0 5.59297 0 7.6087C0 9.84958 0.640527 11.5451 1.82699 12.7879C3.37143 14.4069 5.81952 15.3112 9.26637 15.3112C12.7879 15.3112 15.3869 14.4451 16.8375 12.7503C17.9294 11.5069 18.5323 9.83121 18.5323 7.6087C18.5323 5.46101 18.0613 3.84185 16.856 2.56097M13.8803 10.923C12.8822 11.9026 11.5451 12.4112 9.26637 12.4112C7.17582 12.4112 5.89486 11.9589 4.87807 11.0927C3.9738 10.3207 3.63525 9.09626 3.63525 7.66506C3.63525 6.3469 3.99288 5.16 4.6524 4.44422C5.51824 3.54057 6.98734 2.93758 9.24721 2.93758C11.6207 2.93758 12.8822 3.48404 13.8993 4.40677C14.6336 5.0844 14.9165 6.36527 14.9165 7.66506C14.9165 8.94593 14.6336 10.1887 13.8803 10.923"/>
	</g>
	<defs>
		<clipPath id="clip_11">
			<rect x="-359" y="-119" width="5760" height="20332" clip-rule="evenodd"/>
		</clipPath>
	</defs>
	<g clip-path="url(#clip_11)">
		<path fill="rgb(255,255,255)" stroke="none" transform="matrix(4 0 0 4 224.329 105.334)" d="M4.71429 2.16211C4.71429 2.6429 4.6102 3.05486 4.40237 3.3993C4.19455 3.74277 3.89881 3.97073 3.51596 4.08106L4.85064 6.79789L3.25336 6.79789L2.11341 4.27543L1.44193 4.27543L1.44193 6.79789L0 6.79789L0 0L2.63007 0C2.96106 0 3.25679 0.050022 3.51596 0.151033C3.776 0.251956 3.99481 0.396396 4.17354 0.584527C4.35235 0.773011 4.48677 1 4.57802 1.26629C4.66866 1.53266 4.71429 1.83138 4.71429 2.16211ZM2.99552 2.95103C3.128 2.82101 3.19455 2.60659 3.19455 2.30813L3.19455 2.01582C3.19455 1.71763 3.128 1.50356 2.99552 1.37345C2.86233 1.24352 2.62321 1.17873 2.27965 1.17873L1.44193 1.17873L1.44193 3.14576L2.27965 3.14576C2.62321 3.14576 2.86233 3.08114 2.99552 2.95103Z" fill-rule="evenodd"/>
	</g>
	<defs>
		<clipPath id="clip_12">
			<rect x="-359" y="-119" width="5760" height="20332" clip-rule="evenodd"/>
		</clipPath>
	</defs>
	<g clip-path="url(#clip_12)">
		<path fill="rgb(255,255,255)" stroke="none" transform="matrix(4 0 0 4 263.443 105.335)" d="M0 6.79754L4.34321 6.79754L4.34321 5.59974L1.46101 5.59974L1.46101 3.95376L4.24633 3.95376L4.24633 2.75596L1.46101 2.75596L1.46101 1.19745L4.34321 1.19745L4.34321 0L0 0L0 6.79754Z"/>
	</g>
	<defs>
		<clipPath id="clip_13">
			<rect x="-359" y="-119" width="5760" height="20332" clip-rule="evenodd"/>
		</clipPath>
	</defs>
	<g clip-path="url(#clip_13)">
		<path fill="rgb(255,255,255)" stroke="none" transform="matrix(4 0 0 4 300.49 104.868)" d="M3.38901 2.91666L2.67815 2.7898C2.34716 2.73099 2.10875 2.64281 1.96237 2.52466C1.81635 2.40677 1.74356 2.22989 1.74356 1.99429C1.74356 1.45002 2.07147 1.17811 2.72694 1.17811C3.03833 1.17811 3.31798 1.23499 3.56466 1.3484C3.81134 1.46224 4.02567 1.62004 4.20765 1.82101L5.03508 0.89767C4.79464 0.621451 4.48018 0.402022 4.09046 0.241582C3.70092 0.0806154 3.24299 0 2.71754 0C1.94453 0 1.34409 0.180044 0.915516 0.539517C0.487033 0.899604 0.272615 1.40686 0.272615 2.06207C0.272615 2.56158 0.408879 2.98444 0.681406 3.33143C0.954373 3.67807 1.39596 3.90312 2.00615 4.00721L2.71754 4.12378C3.04861 4.17662 3.28369 4.26479 3.42338 4.38954C3.56281 4.51393 3.63253 4.69706 3.63253 4.93934C3.63253 5.23402 3.5418 5.4604 3.35991 5.61697C3.17855 5.77424 2.91226 5.85292 2.56158 5.85292C2.25591 5.85292 1.95613 5.78831 1.66048 5.65829C1.3651 5.52818 1.09433 5.32721 0.847121 5.05398L0 5.98804C0.25978 6.30998 0.600439 6.5644 1.02277 6.7513C1.44448 6.93793 1.94145 7.03174 2.51279 7.03174C2.94136 7.03174 3.31613 6.97574 3.63745 6.86637C3.95912 6.75569 4.2298 6.60193 4.45108 6.40404C4.67182 6.20624 4.83719 5.97275 4.94752 5.70321C5.05776 5.43446 5.11314 5.14092 5.11314 4.8233C5.11314 4.2851 4.96343 3.85688 4.66523 3.53925C4.36607 3.22171 3.94127 3.01354 3.38901 2.91666"/>
	</g>
	<defs>
		<clipPath id="clip_14">
			<rect x="-359" y="-119" width="5760" height="20332" clip-rule="evenodd"/>
		</clipPath>
	</defs>
	<g clip-path="url(#clip_14)">
		<path fill="rgb(255,255,255)" stroke="none" transform="matrix(4 0 0 4 341.198 105.335)" d="M3.51596 0.150945C3.776 0.251604 3.99481 0.396308 4.17363 0.584527C4.35235 0.773011 4.48686 0.999912 4.57811 1.2662C4.66875 1.53248 4.71429 1.83112 4.71429 2.16202C4.71429 2.4931 4.66875 2.79156 4.57811 3.05793C4.48686 3.32422 4.35235 3.55112 4.17363 3.73969C3.99481 3.92782 3.776 4.07253 3.51596 4.17319C3.25679 4.2742 2.96141 4.32413 2.63042 4.32413L1.47103 4.32413L1.47103 6.79763L0 6.79763L0 0L2.63042 0C2.96141 0 3.25679 0.050022 3.51596 0.150945ZM2.97582 2.95068C3.10901 2.82092 3.17547 2.60659 3.17547 2.30778L3.17547 2.01547C3.17547 1.71763 3.10901 1.50312 2.97582 1.37319C2.84264 1.24343 2.60413 1.17873 2.25996 1.17873L1.47103 1.17873L1.47103 3.14541L2.25996 3.14541C2.60413 3.14541 2.84264 3.08079 2.97582 2.95068Z" fill-rule="evenodd"/>
	</g>
	<defs>
		<clipPath id="clip_15">
			<rect x="-359" y="-119" width="5760" height="20332" clip-rule="evenodd"/>
		</clipPath>
	</defs>
	<g clip-path="url(#clip_15)">
		<path fill="rgb(255,255,255)" stroke="none" transform="matrix(4 0 0 4 378.247 104.868)" d="M0.647297 0.925187C1.07895 0.30822 1.7491 0 2.65846 0C3.56774 0 4.23789 0.30822 4.66989 0.925187C5.10154 1.54198 5.31719 2.40563 5.31719 3.51587C5.31719 4.62611 5.10154 5.48976 4.66989 6.10585C4.23789 6.72299 3.56774 7.03174 2.65846 7.03174C1.7491 7.03174 1.07895 6.72299 0.647297 6.10585C0.215385 5.48976 0 4.62611 0 3.51587C0 2.40563 0.215385 1.54198 0.647297 0.925187ZM3.52026 5.39015C3.6793 5.08193 3.75903 4.65213 3.75903 4.09978L3.75903 2.92167C3.75903 2.37591 3.6793 1.94927 3.52026 1.64105C3.36114 1.33284 3.07393 1.17811 2.65846 1.17811C2.24334 1.17811 1.95516 1.33284 1.79666 1.64105C1.63763 1.94927 1.5578 2.37591 1.5578 2.92167L1.5578 4.11007C1.5578 4.65521 1.63763 5.08193 1.79666 5.39015C1.95516 5.6989 2.24334 5.85301 2.65846 5.85301C3.07393 5.85301 3.36114 5.6989 3.52026 5.39015Z" fill-rule="evenodd"/>
	</g>
	<defs>
		<clipPath id="clip_16">
			<rect x="-359" y="-119" width="5760" height="20332" clip-rule="evenodd"/>
		</clipPath>
	</defs>
	<g clip-path="url(#clip_16)">
		<path fill="rgb(255,255,255)" stroke="none" transform="matrix(4 0 0 4 418.527 105.335)" d="M3.40862 4.51886L3.30136 4.51886L1.75323 0L0 0L0 6.79754L1.24651 6.79754L1.24651 2.27868L1.35376 2.27868L2.90189 6.79754L4.65521 6.79754L4.65521 0L3.40862 0L3.40862 4.51886Z"/>
	</g>
	<defs>
		<clipPath id="clip_17">
			<rect x="-359" y="-119" width="5760" height="20332" clip-rule="evenodd"/>
		</clipPath>
	</defs>
	<g clip-path="url(#clip_17)">
		<path fill="rgb(255,255,255)" stroke="none" transform="matrix(4 0 0 4 456.313 104.868)" d="M3.38936 2.91666L2.67851 2.7898C2.34752 2.73099 2.10928 2.64281 1.96273 2.52466C1.8167 2.40677 1.74391 2.22989 1.74391 1.99429C1.74391 1.45002 2.07182 1.17811 2.7273 1.17811C3.03868 1.17811 3.31833 1.23499 3.56501 1.3484C3.81161 1.46224 4.02602 1.62004 4.208 1.82101L5.03543 0.89767C4.79499 0.621451 4.48053 0.402022 4.09081 0.241582C3.70128 0.0806154 3.24334 0 2.71789 0C1.94488 0 1.34444 0.180044 0.915868 0.539517C0.487297 0.899604 0.272967 1.40686 0.272967 2.06207C0.272967 2.56158 0.409231 2.98444 0.681758 3.33143C0.954725 3.67807 1.39631 3.90312 2.00651 4.00721L2.71789 4.12378C3.04897 4.17662 3.28404 4.26479 3.42374 4.38954C3.56317 4.51393 3.63288 4.69706 3.63288 4.93934C3.63288 5.23402 3.54215 5.4604 3.35991 5.61697C3.1789 5.77424 2.91262 5.85292 2.56193 5.85292C2.25618 5.85292 1.95648 5.78831 1.66075 5.65829C1.36545 5.52818 1.09468 5.32721 0.847473 5.05398L0 5.98804C0.260044 6.30998 0.600791 6.5644 1.02312 6.7513C1.44484 6.93793 1.9418 7.03174 2.51314 7.03174C2.94172 7.03174 3.31648 6.97574 3.6378 6.86637C3.95947 6.75569 4.23007 6.60193 4.45143 6.40404C4.67218 6.20624 4.83754 5.97275 4.94787 5.70321C5.05811 5.43446 5.11314 5.14092 5.11314 4.8233C5.11314 4.2851 4.96378 3.85688 4.66558 3.53925C4.36642 3.22171 3.94163 3.01354 3.38936 2.91666"/>
	</g>
	<defs>
		<clipPath id="clip_18">
			<rect x="-359" y="-119" width="5760" height="20332" clip-rule="evenodd"/>
		</clipPath>
	</defs>
	<g clip-path="url(#clip_18)">
		<path fill="rgb(255,255,255)" stroke="none" transform="matrix(4 0 0 4 497.181 105.335)" d="M0 6.79754L4.34321 6.79754L4.34321 5.59974L1.46092 5.59974L1.46092 3.95376L4.24633 3.95376L4.24633 2.75596L1.46092 2.75596L1.46092 1.19745L4.34321 1.19745L4.34321 0L0 0L0 6.79754Z"/>
	</g>
	<defs>
		<clipPath id="clip_19">
			<rect x="-359" y="-119" width="5760" height="20332" clip-rule="evenodd"/>
		</clipPath>
	</defs>
	<g clip-path="url(#clip_19)">
		<path fill="rgb(255,255,255)" stroke="none" transform="matrix(4 0 0 4 30.7179 87.8582)" d="M0 5.71051L8.40545 10.5633L8.40545 5.71051L11.3756 5.71051L11.3756 10.5633L19.7807 5.71051L9.8902 0L0 5.71051Z"/>
	</g>
	<defs>
		<clipPath id="clip_20">
			<rect x="-359" y="-119" width="5760" height="20332" clip-rule="evenodd"/>
		</clipPath>
	</defs>
	<g clip-path="url(#clip_20)">
		<path fill="rgb(0,128,104)" stroke="none" transform="matrix(4 0 0 4 30.7141 31.8822)" d="M8.40642 0L0 4.85336L8.40642 9.70699L8.40642 0Z"/>
	</g>
	<defs>
		<clipPath id="clip_21">
			<rect x="-359" y="-119" width="5760" height="20332" clip-rule="evenodd"/>
		</clipPath>
	</defs>
	<g clip-path="url(#clip_21)">
		<path fill="rgb(0,128,104)" stroke="none" transform="matrix(4 0 0 4 24.7751 61.5845)" d="M0 0L0 9.70708L8.40615 4.85371L0 0Z"/>
	</g>
	<defs>
		<clipPath id="clip_22">
			<rect x="-359" y="-119" width="5760" height="20332" clip-rule="evenodd"/>
		</clipPath>
	</defs>
	<g clip-path="url(#clip_22)">
		<path fill="rgb(0,128,104)" stroke="none" transform="matrix(4 0 0 4 76.2205 31.8822)" d="M0 0L0 9.70673L8.40615 4.85336L0 0Z"/>
	</g>
	<defs>
		<clipPath id="clip_23">
			<rect x="-359" y="-119" width="5760" height="20332" clip-rule="evenodd"/>
		</clipPath>
	</defs>
	<g clip-path="url(#clip_23)">
		<path fill="rgb(0,128,104)" stroke="none" transform="matrix(4 0 0 4 82.1595 61.5852)" d="M8.40615 9.70699L8.40615 0L0 4.85363L8.40615 9.70699Z"/>
	</g>
	<defs>
		<clipPath id="clip_24">
			<rect x="-359" y="-119" width="5760" height="20332" clip-rule="evenodd"/>
		</clipPath>
	</defs>
	<g clip-path="url(#clip_24)">
		<path fill="rgb(0,128,104)" stroke="none" transform="matrix(4 0 0 4 0.999847 0.999893)" d="M0 9.99974L17.3199 0L34.6398 9.99974L34.6398 29.9989L17.3199 39.9985L0 29.9989L0 9.99974ZM2.97354 11.7163L2.97354 28.2822L17.3199 36.5648L31.6662 28.2822L31.6662 11.7163L17.3199 3.43358L2.97354 11.7163Z" fill-rule="evenodd"/>
	</g>
	<defs>
		<clipPath id="clip_25">
			<rect x="-359" y="-119" width="5760" height="20332" clip-rule="evenodd"/>
		</clipPath>
	</defs>
	<g clip-path="url(#clip_25)">
		<path fill="rgb(255,255,255)" stroke="none" transform="matrix(4 0 0 4 179.813 30.2035)" d="M15.1984 6.87385C15.5941 6.27147 15.8014 5.38629 15.8014 4.31288C15.8014 3.14479 15.5376 2.29776 15.0102 1.63851C14.2385 0.64044 12.7694 0 10.5279 0L0 0L0 14.7845L3.52149 14.7845L3.52149 9.02154L9.26602 9.02154L13.2023 14.7845L17.2327 14.7845L12.8069 8.47481C13.8618 8.3055 14.728 7.64624 15.1984 6.87385M12.0726 5.59385C11.8461 5.9702 11.3193 6.17714 10.3588 6.17714L3.54057 6.17714L3.54057 2.90004L10.1512 2.90004C11.2059 2.90004 11.7523 3.12668 12.0726 3.5971C12.2608 3.84185 12.3171 4.23763 12.3171 4.59516C12.3171 4.89679 12.2608 5.29187 12.0726 5.59385"/>
	</g>
	<defs>
		<clipPath id="clip_26">
			<rect x="-359" y="-119" width="5760" height="20332" clip-rule="evenodd"/>
		</clipPath>
	</defs>
	<g clip-path="url(#clip_26)">
		<path fill="rgb(255,255,255)" stroke="none" transform="matrix(4 0 0 4 250.684 30.2035)" d="M0 14.7842L7.81538 0L12.0717 0L19.5676 14.7842L15.707 14.7842L14.125 11.526L5.40484 11.526L3.76624 14.7842L0 14.7842ZM9.24695 4.10541L6.91174 8.66303L12.6556 8.66303C12.6746 8.66303 10.4335 4.10541 10.4335 4.10541L9.84932 2.76818L9.24695 4.10541Z" fill-rule="evenodd"/>
	</g>
	<defs>
		<clipPath id="clip_27">
			<rect x="-359" y="-119" width="5760" height="20332" clip-rule="evenodd"/>
		</clipPath>
	</defs>
	<g clip-path="url(#clip_27)">
		<path fill="rgb(255,255,255)" stroke="none" transform="matrix(4 0 0 4 336.469 30.2037)" d="M12.4302 9.92492L3.91745 0L0 0L0 14.7843L3.44677 14.7843L3.44677 4.63297L12.1288 14.7843L15.8388 14.7843L15.8388 0L12.4302 0L12.4302 9.92492Z"/>
	</g>
	<defs>
		<clipPath id="clip_28">
			<rect x="-359" y="-119" width="5760" height="20332" clip-rule="evenodd"/>
		</clipPath>
	</defs>
	<g clip-path="url(#clip_28)">
		<path fill="rgb(255,255,255)" stroke="none" transform="matrix(4 0 0 4 410.578 29.0721)" d="M13.8804 10.8108C12.9197 11.9032 11.5076 12.2984 9.2473 12.2984C7.32589 12.2984 5.38637 11.7713 4.42585 10.4907C3.9738 9.86936 3.70998 8.98409 3.70998 7.66532C3.70998 6.47877 3.95543 5.57477 4.40668 4.93433C5.21723 3.76686 6.83639 3.07015 9.20976 3.07015C11.6207 3.07015 13.127 3.71059 13.8428 4.61486C14.1814 5.02875 14.4079 5.59393 14.4452 6.10215L18.1558 6.10215C18.1366 5.53732 17.9485 4.50119 17.4962 3.6916C16.2909 1.65758 13.9366 0 9.2473 0C5.17908 0 2.76826 1.26189 1.35631 3.07015C0.452308 4.16255 0 5.72545 0 7.64686C0 9.75587 0.54611 11.3568 1.50664 12.4865C2.84387 14.1822 5.3673 15.2927 9.28536 15.2927C13.6547 15.2927 16.1781 14.0313 17.3643 11.9598C17.9485 11.0365 18.1175 9.96308 18.1742 9.30418L14.4643 9.30418C14.4079 9.86936 14.257 10.3778 13.8804 10.8108"/>
	</g>
	<defs>
		<clipPath id="clip_29">
			<rect x="-359" y="-119" width="5760" height="20332" clip-rule="evenodd"/>
		</clipPath>
	</defs>
	<g clip-path="url(#clip_29)">
		<path fill="rgb(255,255,255)" stroke="none" transform="matrix(4 0 0 4 489.508 28.999)" d="M16.856 2.56097C15.2174 0.847121 12.8259 0 9.26637 0C5.70673 0 3.38989 0.866198 1.67666 2.71191C0.508571 3.97345 0 5.59297 0 7.6087C0 9.84958 0.640527 11.5451 1.82699 12.7879C3.37143 14.4069 5.81952 15.3112 9.26637 15.3112C12.7879 15.3112 15.3869 14.4451 16.8375 12.7503C17.9294 11.5069 18.5323 9.83121 18.5323 7.6087C18.5323 5.46101 18.0613 3.84185 16.856 2.56097M13.8803 10.923C12.8822 11.9026 11.5451 12.4112 9.26637 12.4112C7.17582 12.4112 5.89486 11.9589 4.87807 11.0927C3.9738 10.3207 3.63525 9.09626 3.63525 7.66506C3.63525 6.3469 3.99288 5.16 4.6524 4.44422C5.51824 3.54057 6.98734 2.93758 9.24721 2.93758C11.6207 2.93758 12.8822 3.48404 13.8993 4.40677C14.6336 5.0844 14.9165 6.36527 14.9165 7.66506C14.9165 8.94593 14.6336 10.1887 13.8803 10.923"/>
	</g>
	<defs>
		<clipPath id="clip_30">
			<rect x="-359" y="-119" width="5760" height="20332" clip-rule="evenodd"/>
		</clipPath>
	</defs>
	<g clip-path="url(#clip_30)">
		<path fill="rgb(255,255,255)" stroke="none" transform="matrix(4 0 0 4 224.329 105.334)" d="M4.71429 2.16211C4.71429 2.6429 4.6102 3.05486 4.40237 3.3993C4.19455 3.74277 3.89881 3.97073 3.51596 4.08106L4.85064 6.79789L3.25336 6.79789L2.11341 4.27543L1.44193 4.27543L1.44193 6.79789L0 6.79789L0 0L2.63007 0C2.96106 0 3.25679 0.050022 3.51596 0.151033C3.776 0.251956 3.99481 0.396396 4.17354 0.584527C4.35235 0.773011 4.48677 1 4.57802 1.26629C4.66866 1.53266 4.71429 1.83138 4.71429 2.16211ZM2.99552 2.95103C3.128 2.82101 3.19455 2.60659 3.19455 2.30813L3.19455 2.01582C3.19455 1.71763 3.128 1.50356 2.99552 1.37345C2.86233 1.24352 2.62321 1.17873 2.27965 1.17873L1.44193 1.17873L1.44193 3.14576L2.27965 3.14576C2.62321 3.14576 2.86233 3.08114 2.99552 2.95103Z" fill-rule="evenodd"/>
	</g>
	<defs>
		<clipPath id="clip_31">
			<rect x="-359" y="-119" width="5760" height="20332" clip-rule="evenodd"/>
		</clipPath>
	</defs>
	<g clip-path="url(#clip_31)">
		<path fill="rgb(255,255,255)" stroke="none" transform="matrix(4 0 0 4 263.443 105.335)" d="M0 6.79754L4.34321 6.79754L4.34321 5.59974L1.46101 5.59974L1.46101 3.95376L4.24633 3.95376L4.24633 2.75596L1.46101 2.75596L1.46101 1.19745L4.34321 1.19745L4.34321 0L0 0L0 6.79754Z"/>
	</g>
	<defs>
		<clipPath id="clip_32">
			<rect x="-359" y="-119" width="5760" height="20332" clip-rule="evenodd"/>
		</clipPath>
	</defs>
	<g clip-path="url(#clip_32)">
		<path fill="rgb(255,255,255)" stroke="none" transform="matrix(4 0 0 4 300.49 104.868)" d="M3.38901 2.91666L2.67815 2.7898C2.34716 2.73099 2.10875 2.64281 1.96237 2.52466C1.81635 2.40677 1.74356 2.22989 1.74356 1.99429C1.74356 1.45002 2.07147 1.17811 2.72694 1.17811C3.03833 1.17811 3.31798 1.23499 3.56466 1.3484C3.81134 1.46224 4.02567 1.62004 4.20765 1.82101L5.03508 0.89767C4.79464 0.621451 4.48018 0.402022 4.09046 0.241582C3.70092 0.0806154 3.24299 0 2.71754 0C1.94453 0 1.34409 0.180044 0.915516 0.539517C0.487033 0.899604 0.272615 1.40686 0.272615 2.06207C0.272615 2.56158 0.408879 2.98444 0.681406 3.33143C0.954373 3.67807 1.39596 3.90312 2.00615 4.00721L2.71754 4.12378C3.04861 4.17662 3.28369 4.26479 3.42338 4.38954C3.56281 4.51393 3.63253 4.69706 3.63253 4.93934C3.63253 5.23402 3.5418 5.4604 3.35991 5.61697C3.17855 5.77424 2.91226 5.85292 2.56158 5.85292C2.25591 5.85292 1.95613 5.78831 1.66048 5.65829C1.3651 5.52818 1.09433 5.32721 0.847121 5.05398L0 5.98804C0.25978 6.30998 0.600439 6.5644 1.02277 6.7513C1.44448 6.93793 1.94145 7.03174 2.51279 7.03174C2.94136 7.03174 3.31613 6.97574 3.63745 6.86637C3.95912 6.75569 4.2298 6.60193 4.45108 6.40404C4.67182 6.20624 4.83719 5.97275 4.94752 5.70321C5.05776 5.43446 5.11314 5.14092 5.11314 4.8233C5.11314 4.2851 4.96343 3.85688 4.66523 3.53925C4.36607 3.22171 3.94127 3.01354 3.38901 2.91666"/>
	</g>
	<defs>
		<clipPath id="clip_33">
			<rect x="-359" y="-119" width="5760" height="20332" clip-rule="evenodd"/>
		</clipPath>
	</defs>
	<g clip-path="url(#clip_33)">
		<path fill="rgb(255,255,255)" stroke="none" transform="matrix(4 0 0 4 341.198 105.335)" d="M3.51596 0.150945C3.776 0.251604 3.99481 0.396308 4.17363 0.584527C4.35235 0.773011 4.48686 0.999912 4.57811 1.2662C4.66875 1.53248 4.71429 1.83112 4.71429 2.16202C4.71429 2.4931 4.66875 2.79156 4.57811 3.05793C4.48686 3.32422 4.35235 3.55112 4.17363 3.73969C3.99481 3.92782 3.776 4.07253 3.51596 4.17319C3.25679 4.2742 2.96141 4.32413 2.63042 4.32413L1.47103 4.32413L1.47103 6.79763L0 6.79763L0 0L2.63042 0C2.96141 0 3.25679 0.050022 3.51596 0.150945ZM2.97582 2.95068C3.10901 2.82092 3.17547 2.60659 3.17547 2.30778L3.17547 2.01547C3.17547 1.71763 3.10901 1.50312 2.97582 1.37319C2.84264 1.24343 2.60413 1.17873 2.25996 1.17873L1.47103 1.17873L1.47103 3.14541L2.25996 3.14541C2.60413 3.14541 2.84264 3.08079 2.97582 2.95068Z" fill-rule="evenodd"/>
	</g>
	<defs>
		<clipPath id="clip_34">
			<rect x="-359" y="-119" width="5760" height="20332" clip-rule="evenodd"/>
		</clipPath>
	</defs>
	<g clip-path="url(#clip_34)">
		<path fill="rgb(255,255,255)" stroke="none" transform="matrix(4 0 0 4 378.247 104.868)" d="M0.647297 0.925187C1.07895 0.30822 1.7491 0 2.65846 0C3.56774 0 4.23789 0.30822 4.66989 0.925187C5.10154 1.54198 5.31719 2.40563 5.31719 3.51587C5.31719 4.62611 5.10154 5.48976 4.66989 6.10585C4.23789 6.72299 3.56774 7.03174 2.65846 7.03174C1.7491 7.03174 1.07895 6.72299 0.647297 6.10585C0.215385 5.48976 0 4.62611 0 3.51587C0 2.40563 0.215385 1.54198 0.647297 0.925187ZM3.52026 5.39015C3.6793 5.08193 3.75903 4.65213 3.75903 4.09978L3.75903 2.92167C3.75903 2.37591 3.6793 1.94927 3.52026 1.64105C3.36114 1.33284 3.07393 1.17811 2.65846 1.17811C2.24334 1.17811 1.95516 1.33284 1.79666 1.64105C1.63763 1.94927 1.5578 2.37591 1.5578 2.92167L1.5578 4.11007C1.5578 4.65521 1.63763 5.08193 1.79666 5.39015C1.95516 5.6989 2.24334 5.85301 2.65846 5.85301C3.07393 5.85301 3.36114 5.6989 3.52026 5.39015Z" fill-rule="evenodd"/>
	</g>
	<defs>
		<clipPath id="clip_35">
			<rect x="-359" y="-119" width="5760" height="20332" clip-rule="evenodd"/>
		</clipPath>
	</defs>
	<g clip-path="url(#clip_35)">
		<path fill="rgb(255,255,255)" stroke="none" transform="matrix(4 0 0 4 418.527 105.335)" d="M3.40862 4.51886L3.30136 4.51886L1.75323 0L0 0L0 6.79754L1.24651 6.79754L1.24651 2.27868L1.35376 2.27868L2.90189 6.79754L4.65521 6.79754L4.65521 0L3.40862 0L3.40862 4.51886Z"/>
	</g>
	<defs>
		<clipPath id="clip_36">
			<rect x="-359" y="-119" width="5760" height="20332" clip-rule="evenodd"/>
		</clipPath>
	</defs>
	<g clip-path="url(#clip_36)">
		<path fill="rgb(255,255,255)" stroke="none" transform="matrix(4 0 0 4 456.313 104.868)" d="M3.38936 2.91666L2.67851 2.7898C2.34752 2.73099 2.10928 2.64281 1.96273 2.52466C1.8167 2.40677 1.74391 2.22989 1.74391 1.99429C1.74391 1.45002 2.07182 1.17811 2.7273 1.17811C3.03868 1.17811 3.31833 1.23499 3.56501 1.3484C3.81161 1.46224 4.02602 1.62004 4.208 1.82101L5.03543 0.89767C4.79499 0.621451 4.48053 0.402022 4.09081 0.241582C3.70128 0.0806154 3.24334 0 2.71789 0C1.94488 0 1.34444 0.180044 0.915868 0.539517C0.487297 0.899604 0.272967 1.40686 0.272967 2.06207C0.272967 2.56158 0.409231 2.98444 0.681758 3.33143C0.954725 3.67807 1.39631 3.90312 2.00651 4.00721L2.71789 4.12378C3.04897 4.17662 3.28404 4.26479 3.42374 4.38954C3.56317 4.51393 3.63288 4.69706 3.63288 4.93934C3.63288 5.23402 3.54215 5.4604 3.35991 5.61697C3.1789 5.77424 2.91262 5.85292 2.56193 5.85292C2.25618 5.85292 1.95648 5.78831 1.66075 5.65829C1.36545 5.52818 1.09468 5.32721 0.847473 5.05398L0 5.98804C0.260044 6.30998 0.600791 6.5644 1.02312 6.7513C1.44484 6.93793 1.9418 7.03174 2.51314 7.03174C2.94172 7.03174 3.31648 6.97574 3.6378 6.86637C3.95947 6.75569 4.23007 6.60193 4.45143 6.40404C4.67218 6.20624 4.83754 5.97275 4.94787 5.70321C5.05811 5.43446 5.11314 5.14092 5.11314 4.8233C5.11314 4.2851 4.96378 3.85688 4.66558 3.53925C4.36642 3.22171 3.94163 3.01354 3.38936 2.91666"/>
	</g>
	<defs>
		<clipPath id="clip_37">
			<rect x="-359" y="-119" width="5760" height="20332" clip-rule="evenodd"/>
		</clipPath>
	</defs>
	<g clip-path="url(#clip_37)">
		<path fill="rgb(255,255,255)" stroke="none" transform="matrix(4 0 0 4 497.181 105.335)" d="M0 6.79754L4.34321 6.79754L4.34321 5.59974L1.46092 5.59974L1.46092 3.95376L4.24633 3.95376L4.24633 2.75596L1.46092 2.75596L1.46092 1.19745L4.34321 1.19745L4.34321 0L0 0L0 6.79754Z"/>
	</g>

</svg>